<svg width="16" height="16" viewBox="0 0 16 16" fill="none" xmlns="http://www.w3.org/2000/svg">
<path d="M3.21832 6.42906C3.21832 5.00258 4.37462 3.84629 5.8011 3.84629C7.22759 3.84629 8.38388 5.00258 8.38388 6.42906C8.38388 7.85551 7.22759 9.01183 5.8011 9.01183C4.37462 9.01183 3.21832 7.85554 3.21832 6.42906ZM6.89703 9.18795H4.70533C2.88195 9.18795 1.39844 10.6714 1.39844 12.4946V15.1755L1.4053 15.2174L1.59035 15.2751C3.33017 15.8186 4.84222 16 6.08656 16C8.51697 16 9.92547 15.3069 10.0127 15.2629L10.1855 15.1752L10.2037 15.1754V12.4946C10.2037 10.6714 8.72026 9.18795 6.89703 9.18795ZM10.2037 5.16546C11.6301 5.16546 12.7865 4.00916 12.7865 2.58269C12.7865 1.1563 11.6302 0 10.2037 0C8.77738 0 7.62096 1.1563 7.62096 2.58269C7.62099 4.00916 8.77738 5.16546 10.2037 5.16546ZM11.2996 5.34155H9.1079C9.05562 5.34155 9.0047 5.34705 8.95311 5.34955C9.15126 5.76547 9.2656 6.22897 9.2656 6.71979C9.2656 7.62551 8.8857 8.4424 8.27861 9.02504C9.69916 9.4476 10.785 10.654 11.0322 12.1406C13.1271 12.0491 14.3347 11.4572 14.415 11.4166L14.5878 11.3288L14.6061 11.3292V8.6484C14.6064 6.82514 13.1229 5.34155 11.2996 5.34155Z" fill="#4F669D"/>
</svg>
