<svg width="16" height="16" viewBox="0 0 16 16" fill="none" xmlns="http://www.w3.org/2000/svg">
<path d="M2 14H5.23077L11.9231 7.29473L13.3077 5.90743C14.1998 5.01355 14.1998 3.56429 13.3077 2.67041C12.4155 1.77653 10.9691 1.77652 10.0769 2.67041L8.69231 4.0577L2 10.763L2 14Z" fill="#838EAC"/>
<path d="M5.23077 14H2L2 10.763L8.69231 4.0577M5.23077 14L14 14M5.23077 14L11.9231 7.29473M8.69231 4.0577L10.0769 2.67041C10.9691 1.77652 12.4155 1.77653 13.3077 2.67041C14.1998 3.56429 14.1998 5.01355 13.3077 5.90743L11.9231 7.29473M8.69231 4.0577L11.9231 7.29473" stroke="white" stroke-linecap="round" stroke-linejoin="round"/>
</svg>
