<svg width="15" height="15" viewBox="0 0 15 15" fill="none" xmlns="http://www.w3.org/2000/svg">
<path d="M1 12H0.5H1ZM12 14V13.5V14ZM3 14V14.5V14ZM14 4.00002H13.5H14ZM14 12H14.5H14ZM12 2.00002L12 2.50002L12 2.00002ZM3 2L3.00001 1.5L3 2ZM14 6C14.2761 6 14.5 5.77614 14.5 5.5C14.5 5.22386 14.2761 5 14 5V6ZM1 5C0.723858 5 0.5 5.22386 0.5 5.5C0.5 5.77614 0.723858 6 1 6V5ZM4 3C4 3.27614 4.22386 3.5 4.5 3.5C4.77614 3.5 5 3.27614 5 3H4ZM5 1C5 0.723858 4.77614 0.5 4.5 0.5C4.22386 0.5 4 0.723858 4 1H5ZM10 3C10 3.27614 10.2239 3.5 10.5 3.5C10.7761 3.5 11 3.27614 11 3L10 3ZM11 1C11 0.723857 10.7761 0.5 10.5 0.5C10.2239 0.5 10 0.723858 10 1L11 1ZM0.5 4L0.5 12H1.5L1.5 4H0.5ZM12 13.5L3 13.5V14.5L12 14.5V13.5ZM13.5 4.00002V12H14.5V4.00002H13.5ZM12 1.50002L3.00001 1.5L3 2.5L12 2.50002L12 1.50002ZM14.5 4.00002C14.5 2.61931 13.3807 1.50002 12 1.50002L12 2.50002C12.8284 2.50002 13.5 3.1716 13.5 4.00002H14.5ZM1.5 4C1.5 3.17158 2.17157 2.5 3 2.5L3.00001 1.5C1.61929 1.5 0.5 2.61929 0.5 4H1.5ZM0.5 12C0.5 13.3807 1.61929 14.5 3 14.5V13.5C2.17157 13.5 1.5 12.8284 1.5 12H0.5ZM12 14.5C13.3807 14.5 14.5 13.3807 14.5 12H13.5C13.5 12.8284 12.8284 13.5 12 13.5V14.5ZM14 5H1V6H14V5ZM5 3V1H4V3H5ZM11 3L11 1L10 1L10 3L11 3Z" fill="#D6E3EC"/>
</svg>
