<svg width="18" height="18" viewBox="0 0 18 18" fill="none" xmlns="http://www.w3.org/2000/svg">
<ellipse cx="9" cy="4.69231" rx="4" ry="3.69231" stroke="#838EAC" stroke-width="1.5"/>
<path d="M16.9935 14.1001L16.2467 14.1695V14.1695L16.9935 14.1001ZM1.00649 14.1001L1.75327 14.1695L1.00649 14.1001ZM16.3041 15.4494L16.6772 16.1H16.6772L16.3041 15.4494ZM1.69586 15.4494L2.06894 14.7987L2.06894 14.7987L1.69586 15.4494ZM16.426 12.1747L15.7459 12.4907L16.426 12.1747ZM15.9311 14.7987C14.9908 15.3379 12.8375 16.25 9 16.25V17.75C13.0871 17.75 15.4995 16.7753 16.6772 16.1L15.9311 14.7987ZM9 16.25C5.16251 16.25 3.0092 15.3379 2.06894 14.7987L1.32278 16.1C2.50047 16.7753 4.91286 17.75 9 17.75V16.25ZM0.259713 14.0306C0.183927 14.8457 0.555926 15.6603 1.32278 16.1L2.06894 14.7987C1.84474 14.6702 1.72827 14.4384 1.75327 14.1695L0.259713 14.0306ZM16.2467 14.1695C16.2717 14.4384 16.1553 14.6702 15.9311 14.7987L16.6772 16.1C17.4441 15.6603 17.8161 14.8457 17.7403 14.0306L16.2467 14.1695ZM15.7459 12.4907C15.9886 13.0129 16.1944 13.6065 16.2467 14.1695L17.7403 14.0306C17.6658 13.2291 17.3856 12.4598 17.1062 11.8586L15.7459 12.4907ZM1.75327 14.1695C1.80562 13.6065 2.01142 13.0129 2.2541 12.4907L0.893821 11.8586C0.614423 12.4598 0.334237 13.2291 0.259713 14.0306L1.75327 14.1695ZM14.1342 10.0962H3.86576V11.5962H14.1342V10.0962ZM2.2541 12.4907C2.50758 11.9453 3.11893 11.5962 3.86576 11.5962V10.0962C2.68766 10.0962 1.4516 10.6583 0.893821 11.8586L2.2541 12.4907ZM17.1062 11.8586C16.5484 10.6584 15.3123 10.0962 14.1342 10.0962V11.5962C14.8811 11.5962 15.4924 11.9453 15.7459 12.4907L17.1062 11.8586Z" fill="#838EAC"/>
</svg>
