<svg width="16" height="16" viewBox="0 0 16 16" fill="none" xmlns="http://www.w3.org/2000/svg">
<g clip-path="url(#clip0)">
<path d="M4.48017 3.40014C4.48017 1.52223 6.05599 0 8.00002 0C9.94405 0 11.5199 1.52223 11.5199 3.40014C11.5199 5.27802 9.94405 6.80029 8.00002 6.80029C6.05599 6.80029 4.48017 5.27806 4.48017 3.40014ZM9.49356 7.03214H6.50668C4.02175 7.03214 2 8.98509 2 11.3852V14.9146L2.00936 14.9697L2.26155 15.0457C4.63259 15.7612 6.69324 16 8.38905 16C11.7012 16 13.6208 15.0876 13.7396 15.0297L13.9752 14.9142L14 14.9144V11.3852C14 8.98509 11.9783 7.03214 9.49356 7.03214Z" fill="#4F669D"/>
</g>
<defs>
<clipPath id="clip0">
<rect width="16" height="16" fill="white"/>
</clipPath>
</defs>
</svg>
