<svg width="16" height="16" viewBox="0 0 16 16" fill="none" xmlns="http://www.w3.org/2000/svg">
<path d="M2.66536 9.99998H3.9987V13.3333H11.9987V2.66665H3.9987V5.99998H2.66536V1.99998C2.66536 1.82317 2.7356 1.6536 2.86063 1.52858C2.98565 1.40355 3.15522 1.33331 3.33203 1.33331H12.6654C12.8422 1.33331 13.0117 1.40355 13.1368 1.52858C13.2618 1.6536 13.332 1.82317 13.332 1.99998V14C13.332 14.1768 13.2618 14.3464 13.1368 14.4714C13.0117 14.5964 12.8422 14.6666 12.6654 14.6666H3.33203C3.15522 14.6666 2.98565 14.5964 2.86063 14.4714C2.7356 14.3464 2.66536 14.1768 2.66536 14V9.99998ZM6.66536 7.33331V5.33331L9.9987 7.99998L6.66536 10.6666V8.66665H1.33203V7.33331H6.66536Z" fill="#838EAC"/>
</svg>
