<svg width="16" height="16" viewBox="0 0 16 16" fill="none" xmlns="http://www.w3.org/2000/svg">
<path d="M5.33203 4.66669V7.33335L1.33203 4.00002L5.33203 0.666687V3.33335H8.66536C10.0799 3.33335 11.4364 3.89526 12.4366 4.89545C13.4368 5.89564 13.9987 7.2522 13.9987 8.66669C13.9987 10.0812 13.4368 11.4377 12.4366 12.4379C11.4364 13.4381 10.0799 14 8.66536 14H2.66536V12.6667H8.66536C9.72623 12.6667 10.7436 12.2453 11.4938 11.4951C12.2439 10.745 12.6654 9.72755 12.6654 8.66669C12.6654 7.60582 12.2439 6.58841 11.4938 5.83826C10.7436 5.08811 9.72623 4.66669 8.66536 4.66669H5.33203Z" fill="#838EAC"/>
</svg>
