<svg width="16" height="16" viewBox="0 0 16 16" fill="none" xmlns="http://www.w3.org/2000/svg">
<path d="M8.00173 2C11.5964 2 14.5871 4.58667 15.2144 8C14.5877 11.4133 11.5964 14 8.00173 14C4.40706 14 1.4164 11.4133 0.789062 8C1.41573 4.58667 4.40706 2 8.00173 2ZM8.00173 12.6667C9.36137 12.6664 10.6807 12.2045 11.7436 11.3568C12.8066 10.509 13.5503 9.32552 13.8531 8C13.5492 6.67554 12.805 5.49334 11.7421 4.64668C10.6793 3.80003 9.3606 3.33902 8.00173 3.33902C6.64286 3.33902 5.32419 3.80003 4.26131 4.64668C3.19844 5.49334 2.45424 6.67554 2.1504 8C2.45313 9.32552 3.19685 10.509 4.25983 11.3568C5.32281 12.2045 6.64208 12.6664 8.00173 12.6667ZM8.00173 11C7.20608 11 6.44302 10.6839 5.88041 10.1213C5.3178 9.55871 5.00173 8.79565 5.00173 8C5.00173 7.20435 5.3178 6.44129 5.88041 5.87868C6.44302 5.31607 7.20608 5 8.00173 5C8.79738 5 9.56044 5.31607 10.123 5.87868C10.6857 6.44129 11.0017 7.20435 11.0017 8C11.0017 8.79565 10.6857 9.55871 10.123 10.1213C9.56044 10.6839 8.79738 11 8.00173 11ZM8.00173 9.66667C8.44376 9.66667 8.86768 9.49107 9.18024 9.17851C9.4928 8.86595 9.6684 8.44203 9.6684 8C9.6684 7.55797 9.4928 7.13405 9.18024 6.82149C8.86768 6.50893 8.44376 6.33333 8.00173 6.33333C7.5597 6.33333 7.13578 6.50893 6.82322 6.82149C6.51066 7.13405 6.33506 7.55797 6.33506 8C6.33506 8.44203 6.51066 8.86595 6.82322 9.17851C7.13578 9.49107 7.5597 9.66667 8.00173 9.66667Z" fill="#838EAC"/>
</svg>
