<svg width="16" height="16" viewBox="0 0 16 16" fill="none" xmlns="http://www.w3.org/2000/svg">
<path d="M13.1154 12.3076V12.3076C14.1562 12.3076 15 11.4638 15 10.423V7.30762C15 6.20305 14.1046 5.30762 13 5.30762H3C1.89543 5.30762 1 6.20305 1 7.30762V10.423C1 11.4638 1.84377 12.3076 2.88462 12.3076V12.3076" stroke="#838EAC" stroke-width="2"/>
<path d="M13.3845 5.30769V5C13.3845 2.79086 11.5936 1 9.38446 1H6.61523C4.4061 1 2.61523 2.79086 2.61523 5V5.30769" stroke="#838EAC" stroke-width="2"/>
<path d="M3.1543 11.6152C3.1543 10.5107 4.04973 9.61523 5.1543 9.61523H10.8466C11.9512 9.61523 12.8466 10.5107 12.8466 11.6152V12.9998C12.8466 14.1044 11.9512 14.9998 10.8466 14.9998H5.1543C4.04973 14.9998 3.1543 14.1044 3.1543 12.9999V11.6152Z" stroke="#838EAC" stroke-width="2"/>
</svg>
