<svg width="20" height="20" viewBox="0 0 20 20" fill="none" xmlns="http://www.w3.org/2000/svg">
<path d="M7.8979 2.13781C7.42173 1.85802 6.8089 2.01723 6.52912 2.4934C6.24934 2.96957 6.40854 3.58239 6.88471 3.86218L7.8979 2.13781ZM10 4.53278L10.8355 5.08221C10.9861 4.8533 11.0361 4.57265 10.9739 4.30583C10.9117 4.03901 10.7428 3.80938 10.5066 3.67059L10 4.53278ZM7.59925 6.36359C7.2958 6.82505 7.42389 7.44512 7.88535 7.74856C8.3468 8.05201 8.96687 7.92392 9.27032 7.46246L7.59925 6.36359ZM14.7152 5.35907C14.3071 4.98695 13.6746 5.01612 13.3025 5.42422C12.9304 5.83232 12.9596 6.46482 13.3677 6.83693L14.7152 5.35907ZM6.88471 3.86218L9.49341 5.39496L10.5066 3.67059L7.8979 2.13781L6.88471 3.86218ZM9.16446 3.98334L7.59925 6.36359L9.27032 7.46246L10.8355 5.08221L9.16446 3.98334ZM15 10.5328C15 13.2942 12.7614 15.5328 10 15.5328V17.5328C13.866 17.5328 17 14.3988 17 10.5328H15ZM10 15.5328C7.23858 15.5328 5 13.2942 5 10.5328H3C3 14.3988 6.13401 17.5328 10 17.5328V15.5328ZM5 10.5328C5 7.77136 7.23858 5.53278 10 5.53278V3.53278C6.13401 3.53278 3 6.66679 3 10.5328H5ZM13.3677 6.83693C14.372 7.75274 15 9.06872 15 10.5328H17C17 8.48301 16.1177 6.63788 14.7152 5.35907L13.3677 6.83693Z" fill="#202F55"/>
</svg>
