<svg width="16" height="16" viewBox="0 0 16 16" fill="none" xmlns="http://www.w3.org/2000/svg">
<path d="M2.66536 5.33301H13.332V13.9997C13.332 14.1765 13.2618 14.3461 13.1368 14.4711C13.0117 14.5961 12.8422 14.6663 12.6654 14.6663H3.33203C3.15522 14.6663 2.98565 14.5961 2.86063 14.4711C2.7356 14.3461 2.66536 14.1765 2.66536 13.9997V5.33301ZM4.66536 3.33301V1.99967C4.66536 1.82286 4.7356 1.65329 4.86063 1.52827C4.98565 1.40325 5.15522 1.33301 5.33203 1.33301H10.6654C10.8422 1.33301 11.0117 1.40325 11.1368 1.52827C11.2618 1.65329 11.332 1.82286 11.332 1.99967V3.33301H14.6654V4.66634H1.33203V3.33301H4.66536ZM5.9987 2.66634V3.33301H9.9987V2.66634H5.9987ZM5.9987 7.99967V11.9997H7.33203V7.99967H5.9987ZM8.66536 7.99967V11.9997H9.9987V7.99967H8.66536Z" fill="#838EAC"/>
</svg>
